<svg width="380" height="380" viewBox="0 0 380 380" fill="none" xmlns="http://www.w3.org/2000/svg">
<circle cx="190" cy="190" r="190" fill="#5CDB95"/>
<path d="M189.624 88.944C208.248 88.944 224.472 92.592 238.296 99.888C252.12 107.184 262.872 117.936 270.552 132.144C278.232 146.352 282.072 163.536 282.072 183.696V294H235.416V245.616H143.256V294H97.176V183.696C97.176 163.536 101.016 146.352 108.696 132.144C116.376 117.936 127.128 107.184 140.952 99.888C154.776 92.592 171 88.944 189.624 88.944ZM235.416 208.176V179.376C235.416 162.672 231.288 150.096 223.032 141.648C214.776 133.008 203.544 128.688 189.336 128.688C174.936 128.688 163.608 133.008 155.352 141.648C147.288 150.096 143.256 162.672 143.256 179.376V208.176H235.416Z" fill="#05386B"/>
</svg>
