<svg width="304" height="323" viewBox="0 0 304 323" fill="none" xmlns="http://www.w3.org/2000/svg">
<path d="M1.27802 256.495C5.96689 262.056 11.0384 267.284 16.4556 272.137L221.331 272.676C226.748 267.823 231.819 262.597 236.508 257.035L1.27802 256.495Z" fill="#05386B"/>
<path d="M104.741 204.188V259.601H143.522V204.188C143.522 203.79 143.395 203.401 143.159 203.08C142.923 202.76 142.59 202.523 142.21 202.405C142.031 202.346 141.843 202.317 141.654 202.319H106.614C106.369 202.318 106.125 202.366 105.898 202.46C105.671 202.554 105.465 202.691 105.291 202.865C105.117 203.039 104.979 203.245 104.884 203.472C104.79 203.699 104.741 203.942 104.741 204.188ZM119.876 223.228C119.886 222.136 120.326 221.092 121.102 220.323C121.877 219.554 122.924 219.123 124.015 219.123C125.107 219.123 126.154 219.554 126.929 220.323C127.704 221.092 128.145 222.136 128.155 223.228V229.658C128.15 230.753 127.711 231.802 126.935 232.575C126.159 233.347 125.11 233.781 124.015 233.781C122.921 233.781 121.871 233.347 121.095 232.575C120.32 231.802 119.881 230.753 119.876 229.658V223.228Z" fill="#05386B"/>
<path d="M104.622 257.829V263.173C104.623 263.449 104.733 263.715 104.928 263.911C105.123 264.107 105.388 264.219 105.664 264.221H142.599C142.875 264.22 143.141 264.109 143.336 263.912C143.531 263.716 143.641 263.45 143.641 263.173V257.829H104.622Z" fill="#3F3D56"/>
<path d="M43.7341 120.701V221.878C43.7352 223.167 44.2472 224.403 45.1581 225.315C46.0688 226.227 47.3037 226.739 48.5917 226.74H198.37C199.658 226.739 200.893 226.227 201.804 225.315C202.715 224.403 203.227 223.167 203.228 221.878V120.701C203.225 119.413 202.712 118.178 201.802 117.268C200.891 116.358 199.657 115.845 198.37 115.844H48.5917C47.3051 115.845 46.0712 116.358 45.1608 117.268C44.2501 118.178 43.7373 119.413 43.7341 120.701Z" fill="#5CDB95"/>
<path d="M47.248 121.96V220.63C47.2491 221.319 47.5229 221.979 48.0096 222.466C48.4962 222.953 49.1557 223.227 49.844 223.228H197.123C197.812 223.227 198.471 222.953 198.958 222.466C199.445 221.979 199.718 221.319 199.72 220.63V121.96C199.719 121.27 199.446 120.609 198.959 120.12C198.473 119.632 197.813 119.357 197.123 119.356H49.844C49.1549 119.357 48.4947 119.632 48.008 120.12C47.5213 120.609 47.248 121.27 47.248 121.96Z" fill="#05386B"/>
<path d="M77.2792 265.48C77.4291 265.668 77.6197 265.82 77.8365 265.923C78.0533 266.027 78.2909 266.081 78.5315 266.08H166.153C166.393 266.079 166.629 266.025 166.846 265.922C167.062 265.819 167.252 265.669 167.403 265.482C167.554 265.296 167.662 265.078 167.718 264.845C167.775 264.612 167.778 264.369 167.729 264.134L166.369 257.667C166.313 257.403 166.191 257.158 166.016 256.953C165.841 256.748 165.617 256.591 165.365 256.495C165.183 256.423 164.989 256.386 164.793 256.387H79.8861C79.6904 256.386 79.4963 256.423 79.3139 256.495C79.0621 256.591 78.8384 256.748 78.6632 256.953C78.4877 257.158 78.3664 257.403 78.3101 257.667L76.9499 264.134C76.9016 264.369 76.9059 264.612 76.9629 264.844C77.0197 265.077 77.128 265.294 77.2792 265.48Z" fill="#5CDB95"/>
<path d="M79.8861 257.737C79.8594 257.737 79.833 257.742 79.808 257.751C79.765 257.766 79.7264 257.791 79.6957 257.824C79.6648 257.858 79.6426 257.898 79.6312 257.942L78.2701 264.413C78.2629 264.45 78.2642 264.489 78.2736 264.526C78.2832 264.563 78.3008 264.597 78.325 264.626L78.3312 264.634C78.3546 264.664 78.385 264.689 78.4197 264.705C78.4546 264.722 78.4928 264.73 78.5314 264.729H166.153C166.191 264.729 166.229 264.721 166.264 264.705C166.298 264.688 166.329 264.664 166.353 264.634C166.378 264.605 166.397 264.571 166.407 264.533C166.417 264.496 166.418 264.457 166.41 264.42L165.049 257.945C165.038 257.903 165.018 257.863 164.99 257.831C164.961 257.798 164.925 257.772 164.885 257.756C164.856 257.744 164.825 257.738 164.793 257.737H79.8861Z" fill="#EDF5E1"/>
<path d="M113.723 260.984C113.297 260.602 113.039 260.066 113.007 259.494C112.975 258.922 113.171 258.36 113.552 257.932L134.772 234.164C134.961 233.952 135.19 233.78 135.445 233.657C135.701 233.534 135.978 233.462 136.261 233.446C136.544 233.43 136.827 233.47 137.095 233.564C137.363 233.658 137.609 233.803 137.821 233.992C138.032 234.182 138.204 234.41 138.327 234.666C138.45 234.922 138.522 235.2 138.538 235.483C138.553 235.766 138.513 236.05 138.42 236.318C138.326 236.586 138.181 236.832 137.992 237.044L116.771 260.813C116.39 261.239 115.854 261.497 115.282 261.529C114.711 261.562 114.15 261.365 113.723 260.984Z" fill="#05386B"/>
<path d="M289.76 300.118C289.76 304.058 288.832 307.072 288.947 309.482C282.579 312.264 276.035 314.613 269.352 316.516C268.597 316.732 267.843 316.938 267.08 317.143C262.962 304.522 258.839 292.964 257.214 291.738C253.495 288.946 251.633 300.502 251.633 297.71C251.633 294.915 253.495 294.915 248.848 291.194C244.195 287.47 246.986 270.714 246.986 270.714L240.477 253.96L247.758 227.237L257.214 192.523H266.514C266.514 192.523 266.789 192.723 267.248 193.096C269.573 194.997 276.592 201.352 275.813 208.348C275.581 210.434 276.099 216.496 277 224.568C279.744 248.941 286.043 275.436 286.043 282.43C286.043 291.738 289.76 294.531 289.76 300.118Z" fill="#E6E6E6"/>
<path d="M281.963 224.477C281.952 224.45 281.947 224.428 281.936 224.406C281.728 223.845 281.483 223.296 281.205 222.764C279.637 219.809 281.299 215.27 279.528 210.256C276.667 202.13 273.181 197.337 268.069 193.042C267.917 192.913 267.768 192.788 267.611 192.659L267.605 192.653C264.194 189.849 260.081 187.229 254.975 183.965C253.912 183.284 252.8 182.577 251.645 181.831C250.155 180.875 250.236 177.687 250.323 174.315C250.42 170.571 250.522 166.692 248.687 164.271L248.569 164.115L248.379 164.066C242.087 162.82 235.67 162.325 229.262 162.591H229.257C226.535 162.692 223.834 163.089 221.198 163.774C221.004 163.828 220.81 163.882 220.62 163.947C220.475 163.985 220.329 164.034 220.183 164.082L220.065 164.125L219.973 164.212C218.197 165.989 217.787 169.177 217.593 172.5V172.505C217.555 173.111 217.522 173.716 217.495 174.321C217.344 177.552 217.204 180.604 216.017 181.928C213.368 184.932 210.167 187.397 206.587 189.19C201.012 191.946 196.602 191.859 196.537 191.859L196.025 191.843L195.976 192.351C192.273 199.412 192.414 217.631 192.3 237.142C192.295 238.227 192.288 239.319 192.279 240.416C192.214 249.504 192.041 258.748 191.361 267.172C191.064 270.791 190.681 274.254 190.168 277.492C187.675 293.252 176.378 280.166 170.975 290.652C171.153 291.685 171.451 292.691 171.866 293.652C172.486 294.018 173.123 294.376 173.755 294.731C176.556 296.292 179.409 297.75 182.315 299.103C182.477 299.178 182.639 299.255 182.801 299.325C188.13 301.794 193.623 303.89 199.241 305.603C200.337 305.937 201.433 306.257 202.539 306.559C212.327 309.263 222.405 310.774 232.554 311.06C232.595 311.054 232.637 311.054 232.678 311.054C244.682 310.723 256.606 309.002 268.216 305.926C268.376 305.884 268.539 305.841 268.701 305.798C269.461 305.593 270.219 305.387 270.973 305.171C277.653 303.268 284.2 300.919 290.565 298.137C290.573 298.372 290.595 298.609 290.635 298.844C290.643 298.919 290.653 298.997 290.669 299.071C290.68 298.983 290.691 298.898 290.696 298.812C290.728 298.556 290.755 298.297 290.781 298.038C294.085 265.793 287.224 238.417 281.963 224.477Z" fill="#05386B"/>
<path d="M207.783 145.449C211.078 151.479 216.325 156.206 222.662 158.852C228.999 161.498 236.046 161.905 242.645 160.005C249.243 158.106 254.999 154.013 258.964 148.402C262.928 142.791 264.866 135.996 264.457 129.135C264.048 122.274 261.318 115.757 256.715 110.657C252.112 105.558 245.911 102.179 239.134 101.079C232.357 99.9778 225.407 101.22 219.43 104.602C213.452 107.983 208.803 113.301 206.248 119.68C206.11 120.026 205.985 120.372 205.861 120.732C204.416 124.754 203.841 129.036 204.172 133.297C204.504 137.558 205.734 141.7 207.783 145.449Z" fill="#FFB6B6"/>
<path d="M203.44 120.732C204.74 117.091 204.173 118.988 205.487 115.36C204.63 118.572 205.985 120.372 205.861 120.732H241.839V99.7963C231.298 95.6144 220.993 92.0558 214.769 99.7963C209.222 99.7963 203.902 102.002 199.98 105.929C196.058 109.855 193.854 115.18 193.854 120.732H203.44Z" fill="#05386B"/>
<path d="M216.194 178.93C216.221 178.542 216.263 178.141 216.318 177.753C216.705 174.901 217.674 172.159 218.656 169.445C219.693 166.523 220.744 163.588 221.795 160.666C220.442 165.97 220.855 171.57 222.971 176.618C229.044 171.882 225.212 161.054 233.152 161.054C252.241 161.054 271.883 145.56 271.883 126.437C271.883 107.329 263.694 93.0389 244.605 93.0389C225.503 93.0389 210.01 101.79 209.637 120.899C233.152 126.437 211.753 176.991 216.194 178.93Z" fill="#05386B"/>
<path d="M269.499 123.508C281.72 123.508 291.629 113.589 291.629 101.354C291.629 89.1181 281.72 79.199 269.499 79.199C257.274 79.199 247.366 89.1181 247.366 101.354C247.366 113.589 257.274 123.508 269.499 123.508Z" fill="#05386B"/>
<path d="M304 228.41C303.925 229.55 303.859 230.764 303.8 232.052C302.656 256.306 303.643 288.957 295.931 306.674C294.203 307.619 292.459 308.521 290.696 309.386C290.624 309.418 290.56 309.45 290.501 309.482C290.027 309.714 289.552 309.941 289.077 310.157C289.059 310.173 289.037 310.184 289.016 310.189C283.8 312.656 278.427 314.77 272.928 316.516C272.253 316.732 271.573 316.938 270.893 317.143C270.747 317.186 270.6 317.231 270.456 317.274C260.096 320.341 249.386 322.063 238.589 322.402C238.027 322.418 237.477 322.429 236.942 322.439C236.754 322.445 236.57 322.45 236.387 322.45C235.782 322.455 235.183 322.461 234.578 322.461C233.359 322.461 232.144 322.442 230.935 322.407C220.786 322.122 210.708 320.611 200.92 317.907C199.814 317.602 198.718 317.285 197.622 316.948C192.004 315.237 186.511 313.139 181.182 310.67C181.02 310.6 180.858 310.526 180.696 310.448C177.792 309.098 174.939 307.643 172.136 306.079C171.504 305.721 170.867 305.366 170.247 304.997C169.832 304.036 169.534 303.03 169.356 302C168.131 296.106 167.148 300.08 166.447 287.817C165.805 276.573 165.394 265.296 165.243 258.851C165.195 257.133 165.178 255.755 165.173 254.815C165.745 250.719 174.942 246.073 188.355 241.658C189.623 241.242 190.935 240.826 192.279 240.416C195.906 239.297 199.781 238.2 203.829 237.142C214.138 234.44 225.586 231.96 236.948 229.912C242.556 228.907 248.142 228.005 253.567 227.238C263.082 225.887 272.085 224.952 279.787 224.569C280.528 224.531 281.251 224.499 281.963 224.477C282.728 224.444 283.48 224.423 284.213 224.407C295.309 224.164 302.888 225.32 304 228.41Z" fill="#05386B"/>
<path opacity="0.2" d="M304 228.41C303.925 229.55 303.859 230.764 303.8 232.052C295.392 222.986 204.801 263.487 166.447 287.817C165.804 276.573 165.394 265.296 165.243 258.851C165.194 257.133 165.178 255.755 165.173 254.815C165.745 250.719 174.942 246.073 188.355 241.658C189.623 241.242 190.935 240.826 192.279 240.416C195.906 239.297 199.781 238.2 203.829 237.141C214.138 234.44 225.586 231.96 236.948 229.912C242.556 228.907 248.142 228.005 253.566 227.238C263.082 225.887 272.085 224.952 279.787 224.569C280.525 224.531 281.251 224.499 281.963 224.477C282.728 224.444 283.48 224.423 284.213 224.407C295.309 224.164 302.888 225.32 304 228.41Z" fill="#5CDB95"/>
<path d="M119.769 256.513C120.619 257.585 121.693 258.457 122.915 259.069C124.138 259.681 125.48 260.017 126.847 260.053C128.213 260.089 129.571 259.825 130.825 259.28C132.078 258.734 133.197 257.919 134.102 256.894L164.839 269.531L161.523 252.568L132.842 243.168C131.021 241.76 128.746 241.07 126.45 241.228C124.154 241.387 121.996 242.383 120.385 244.028C118.773 245.672 117.82 247.852 117.707 250.153C117.594 252.454 118.327 254.717 119.769 256.513Z" fill="#FFB6B6"/>
<path d="M222.015 185.874L221.846 185.856L203.922 187.158C201.646 187.324 199.432 187.972 197.426 189.059C195.419 190.147 193.667 191.649 192.285 193.467C191.643 194.308 191.086 195.213 190.625 196.167L190.621 196.17C189.075 199.334 188.61 202.919 189.295 206.375L197.733 248.898L177.429 247.051L170.018 248.319L161.271 244.787L143.324 245.092L142.908 246.469L139.143 258.963L138.847 259.945L166.253 277.233L174.198 274.812L177.942 277.692L178.121 277.695L185.544 277.841L217.199 278.463L225.851 263.119L227.203 260.713C237.252 238.178 239.732 222.446 238.945 211.607C238.533 205.881 237.21 201.528 235.609 198.247C230.658 188.11 222.363 185.959 222.015 185.874Z" fill="#05386B"/>
<path d="M272.296 121.023C268.099 120.079 264.209 118.089 260.984 115.238C257.76 112.387 255.307 108.768 253.852 104.715C252.553 100.945 252.063 96.8052 249.884 93.45C253.204 88.8853 255.867 83.8761 257.793 78.5693C258.539 76.5149 260.286 72.7855 257.325 71.6553C254.966 70.7549 252.286 72.928 250.888 74.6429C249.826 75.9421 249.064 77.461 248.657 79.0899C248.175 76.9583 247.693 74.8268 247.21 72.6953C247.149 72.4908 247.011 72.3178 246.826 72.2124C246.64 72.1069 246.421 72.077 246.214 72.1293C242.263 72.8036 239.397 76.4666 238.899 80.3247C238.627 82.3111 239.078 84.3289 240.17 86.0095C241.44 87.943 243.299 89.329 245.068 90.7697C246.949 92.3019 248.544 93.9337 249.555 96.1742C250.607 98.503 251.08 101.051 251.777 103.497C253.101 108.193 255.666 112.445 259.201 115.805C262.737 119.164 267.112 121.507 271.867 122.586C272.883 122.808 273.315 121.246 272.296 121.023ZM249.98 82.2753C249.853 80.2391 250.39 78.2167 251.511 76.5131C252.073 75.6493 252.776 74.8869 253.591 74.258C254.364 73.6667 255.505 72.8837 256.527 73.1008C257.854 73.3826 257.32 74.865 257.039 75.7587C256.667 76.938 256.258 78.1049 255.812 79.2591C254.944 81.5006 253.937 83.6855 252.795 85.8008C252.203 86.9017 251.57 87.9796 250.908 89.0396C250.452 87.0245 249.997 85.0096 249.541 82.9947C249.684 82.9421 249.806 82.8423 249.886 82.7115C249.965 82.5809 249.999 82.4272 249.98 82.2753ZM240.524 82.5978C240.259 80.7567 240.643 78.8806 241.61 77.292C242.577 75.7034 244.066 74.5017 245.822 73.8933C247.108 79.5736 248.393 85.2541 249.678 90.9346C249.413 91.3262 249.139 91.712 248.865 92.0974C248.793 92.0147 248.727 91.929 248.653 91.8476C245.957 88.9109 241.257 86.9091 240.524 82.5978Z" fill="#5CDB95"/>
</svg>
